#!OML:ASF H:\Dans Jumps\Project 1\Capture day 1\Session 1\subject.ASF
:FULLY-SPECIFIED
:DEGREES
221
root 0.587142 17.2544 -14.5774 5.9148 -0.508511 -2.24242
lowerback 2.49646 -0.531947 -0.0192005
upperback 3.23592 -0.742095 2.30857
thorax 1.95238 -0.400855 2.38711
lowerneck -14.4164 0.705184 -1.12054
upperneck 25.3453 1.44411 -0.601198
head 10.4974 0.478746 0.165679
rclavicle -2.98177e-016 -1.59028e-015
rhumerus -19.1544 -10.0826 -81.4335
rradius 29.9814
rwrist 25.7669
rhand -20.0157 -26.882
rfingers 7.12502
rthumb 6.32469 -56.7676
lclavicle -2.98177e-016 -1.59028e-015
lhumerus -20.3386 -3.50103 86.2165
lradius 27.4377
lwrist 11.5986
lhand -25.8363 -3.38382
lfingers 7.12502
lthumb 0.703894 26.5948
rfemur -19.4105 -2.75532 21.0017
rtibia 31.2861
rfoot -16.3991 -4.26305
rtoes 7.52878
lfemur -20.2839 9.91109 -18.6615
ltibia 31.0251
lfoot -15.1232 3.51024
ltoes -3.44049
222
root 0.586382 17.2365 -14.6045 6.08005 -0.502637 -2.27424
lowerback 2.73121 -0.519991 -0.0309983
upperback 3.27584 -0.724273 2.33343
thorax 1.86178 -0.39229 2.42143
lowerneck -14.4786 0.712702 -1.07953
upperneck 25.1128 1.45071 -0.634319
head 10.4249 0.483722 0.147526
rclavicle -3.77691e-015 2.18663e-014
rhumerus -19.4064 -10.2515 -81.1962
rradius 29.9611
rwrist 25.7762
rhand -20.1076 -26.8046
rfingers 7.12502
rthumb 6.23589 -56.6929
lclavicle -3.77691e-015 2.18663e-014
lhumerus -20.6548 -3.66462 86.1419
lradius 27.6684
lwrist 12.0193
lhand -26.0477 -3.68707
lfingers 7.12502
lthumb 0.499645 26.2921
rfemur -19.9873 -2.78942 21.057
rtibia 31.8318
rfoot -16.5554 -4.27328
rtoes 7.38427
lfemur -20.9056 10.0071 -18.6812
ltibia 31.6428
lfoot -15.3075 3.48498
ltoes -3.52241
223
root 0.585472 17.217 -14.6324 6.24945 -0.491927 -2.30506
lowerback 2.97063 -0.509074 -0.0439895
upperback 3.31991 -0.707885 2.35842
thorax 1.77298 -0.384488 2.45653
lowerneck -14.5569 0.718973 -1.04284
upperneck 24.8787 1.45674 -0.667169
head 10.3552 0.487979 0.130258
rclavicle 3.57812e-015 1.59028e-014
rhumerus -19.6791 -10.4404 -80.9465
rradius 29.9261
rwrist 25.7913
rhand -20.2067 -26.7288
rfingers 7.12502
rthumb 6.14031 -56.6198
lclavicle 3.57812e-015 1.59028e-014
lhumerus -20.9889 -3.83144 86.0645
lradius 27.8857
lwrist 12.4865
lhand -26.2822 -3.95172
lfingers 7.12502
lthumb 0.273183 26.0278
rfemur -20.5861 -2.83109 21.1132
rtibia 32.4063
rfoot -16.7246 -4.28502
rtoes 7.22563
lfemur -21.5481 10.094 -18.7028
ltibia 32.282
lfoot -15.4951 3.46606
ltoes -3.6132
224
root 0.584548 17.1961 -14.6606 6.42277 -0.47778 -2.32797
lowerback 3.21311 -0.498405 -0.0632709
upperback 3.36575 -0.691929 2.38148
thorax 1.68442 -0.377006 2.49318
lowerneck -14.6321 0.723853 -1.0115
upperneck 24.6294 1.46139 -0.698462
head 10.2796 0.491416 0.114272
rclavicle 5.26779e-015 -1.11319e-014
rhumerus -19.9759 -10.6525 -80.6825
rradius 29.8755
rwrist 25.8154
rhand -20.2963 -26.677
rfingers 7.12502
rthumb 6.05374 -56.5706
lclavicle 5.26779e-015 -1.11319e-014
lhumerus -21.3468 -3.99441 85.9858
lradius 28.0961
lwrist 12.9819
lhand -26.5272 -4.10868
lfingers 7.12502
lthumb 0.0365814 25.8711
rfemur -21.2062 -2.88173 21.162
rtibia 33.0097
rfoot -16.9072 -4.29568
rtoes 7.06681
lfemur -22.2089 10.1717 -18.7348
ltibia 32.9403
lfoot -15.6862 3.4566
ltoes -3.72083
225
root 0.583778 17.1739 -14.6887 6.60003 -0.465035 -2.34563
lowerback 3.45037 -0.487599 -0.0831426
upperback 3.41653 -0.675996 2.40132
thorax 1.60392 -0.369568 2.52671
lowerneck -14.6943 0.727487 -0.993488
upperneck 24.3594 1.46444 -0.719583
head 10.1941 0.4943 0.103865
rclavicle 1.88845e-015 -9.14409e-015
rhumerus -20.2991 -10.8786 -80.4112
rradius 29.8197
rwrist 25.8437
rhand -20.3914 -26.6489
rfingers 7.12502
rthumb 5.96196 -56.545
lclavicle 1.88845e-015 -9.14409e-015
lhumerus -21.719 -4.15638 85.9014
lradius 28.2671
lwrist 13.4673
lhand -26.8093 -4.30912
lfingers 7.12502
lthumb -0.235859 25.6705
rfemur -21.8447 -2.94014 21.2054
rtibia 33.6388
rfoot -17.1046 -4.30135
rtoes 6.91989
lfemur -22.8834 10.24 -18.7747
ltibia 33.6146
lfoot -15.8816 3.46406
ltoes -3.84602
226
root 0.583158 17.1502 -14.7169 6.77789 -0.45174 -2.36284
lowerback 3.68944 -0.476858 -0.0981307
upperback 3.46893 -0.660093 2.41963
thorax 1.52405 -0.362028 2.55587
lowerneck -14.7536 0.729486 -0.986765
upperneck 24.0846 1.46609 -0.733662
head 10.1065 0.49638 0.0976711
rclavicle 1.13307e-014 -2.46493e-014
rhumerus -20.6622 -11.1156 -80.1272
rradius 29.7612
rwrist 25.8826
rhand -20.4814 -26.6461
rfingers 7.12502
rthumb 5.87503 -56.5447
lclavicle 1.13307e-014 -2.46493e-014
lhumerus -22.1172 -4.30569 85.8132
lradius 28.4115
lwrist 13.9267
lhand -27.0936 -4.47751
lfingers 7.12502
lthumb -0.510449 25.5016
rfemur -22.4968 -3.00355 21.2492
rtibia 34.2911
rfoot -17.3137 -4.30917
rtoes 6.77764
lfemur -23.5692 10.3014 -18.8166
ltibia 34.3039
lfoot -16.0825 3.48196
ltoes -3.97506
227
root 0.582727 17.1253 -14.745 6.95593 -0.440762 -2.38291
lowerback 3.92994 -0.466233 -0.104519
upperback 3.52405 -0.644187 2.43557
thorax 1.44612 -0.354303 2.57771
lowerneck -14.7992 0.731734 -0.990288
upperneck 23.7964 1.4674 -0.736694
head 10.0116 0.498842 0.0969603
rclavicle -3.57812e-015 5.96354e-015
rhumerus -21.0629 -11.3623 -79.836
rradius 29.7017
rwrist 25.9332
rhand -20.5748 -26.6625
rfingers 7.12502
rthumb 5.78484 -56.5636
lclavicle -3.57812e-015 5.96354e-015
lhumerus -22.5352 -4.44835 85.7186
lradius 28.5221
lwrist 14.3485
lhand -27.3896 -4.61243
lfingers 7.12502
lthumb -0.796371 25.3658
rfemur -23.1597 -3.06992 21.2972
rtibia 34.9641
rfoot -17.5372 -4.31662
rtoes 6.65926
lfemur -24.2635 10.3565 -18.8568
ltibia 35.0084
lfoot -16.2888 3.51805
ltoes -4.11928
